<svg width="103" height="53" viewBox="0 0 103 53" fill="none" xmlns="http://www.w3.org/2000/svg">
<rect x="4.95109" y="4" width="98" height="49" rx="24.5" fill="url(#paint0_linear_0_1)"/>
<path d="M43.2028 13.6086L41.141 21.4468L48.473 26.5025L39.8667 26.291L37.805 34.1291L34.5478 26.1603L25.9416 25.9487L32.5347 21.2352L29.2776 13.2664L36.6096 18.3221L43.2028 13.6086Z" fill="#DB1919"/>
<path fill-rule="evenodd" clip-rule="evenodd" d="M31.8477 1.21078C27.0828 1.70229 22.4417 3.73568 18.7316 7.32437C9.93582 15.8321 9.70234 29.8594 18.2101 38.6551C26.2229 46.9392 39.1319 47.6282 47.9549 40.5725C46.9346 42.1192 45.7306 43.579 44.3434 44.9207C34.1158 54.8134 17.8051 54.5419 7.91235 44.3143C-1.98037 34.0867 -1.70888 17.7759 8.51874 7.8832C14.9309 1.681 23.7341 -0.52604 31.8477 1.21078Z" fill="#DB1919"/>
<defs>
<linearGradient id="paint0_linear_0_1" x1="102.951" y1="28.5" x2="-70.6039" y2="22.8335" gradientUnits="userSpaceOnUse">
<stop stop-color="white"/>
<stop offset="0.510732" stop-color="white" stop-opacity="0.1"/>
</linearGradient>
</defs>
</svg>
